<svg width="26" height="27" viewBox="0 0 26 27" fill="none" xmlns="http://www.w3.org/2000/svg">
<mask id="mask0_20_607" style="mask-type:alpha" maskUnits="userSpaceOnUse" x="0" y="0" width="26" height="27">
<rect y="0.800049" width="26" height="26" fill="#D9D9D9"/>
</mask>
<g mask="url(#mask0_20_607)">
<path d="M11.8618 18.7293L17.9826 12.6084L16.4389 11.0647L11.8618 15.6418L9.55971 13.3397L8.01596 14.8834L11.8618 18.7293ZM12.9993 24.6334C11.6451 24.6334 10.3767 24.3762 9.19408 23.8616C8.01145 23.347 6.98228 22.6519 6.10658 21.7762C5.23089 20.9005 4.53575 19.8713 4.02117 18.6887C3.50658 17.506 3.24929 16.2376 3.24929 14.8834C3.24929 13.5293 3.50658 12.2609 4.02117 11.0782C4.53575 9.8956 5.23089 8.86643 6.10658 7.99074C6.98228 7.11504 8.01145 6.41991 9.19408 5.90532C10.3767 5.39074 11.6451 5.13345 12.9993 5.13345C14.3535 5.13345 15.6219 5.39074 16.8045 5.90532C17.9871 6.41991 19.0163 7.11504 19.892 7.99074C20.7677 8.86643 21.4628 9.8956 21.9774 11.0782C22.492 12.2609 22.7493 13.5293 22.7493 14.8834C22.7493 16.2376 22.492 17.506 21.9774 18.6887C21.4628 19.8713 20.7677 20.9005 19.892 21.7762C19.0163 22.6519 17.9871 23.347 16.8045 23.8616C15.6219 24.3762 14.3535 24.6334 12.9993 24.6334ZM6.06596 3.34595L7.58263 4.86261L2.97846 9.46678L1.46179 7.95011L6.06596 3.34595ZM19.9326 3.34595L24.5368 7.95011L23.0201 9.46678L18.416 4.86261L19.9326 3.34595ZM12.9993 22.4668C15.1118 22.4668 16.9038 21.731 18.3753 20.2595C19.8469 18.788 20.5826 16.9959 20.5826 14.8834C20.5826 12.7709 19.8469 10.9789 18.3753 9.50741C16.9038 8.03588 15.1118 7.30011 12.9993 7.30011C10.8868 7.30011 9.09478 8.03588 7.62325 9.50741C6.15172 10.9789 5.41596 12.7709 5.41596 14.8834C5.41596 16.9959 6.15172 18.788 7.62325 20.2595C9.09478 21.731 10.8868 22.4668 12.9993 22.4668Z" fill="#1C1B1F"/>
</g>
</svg>
